<svg xmlns="http://www.w3.org/2000/svg" class="logo" width="458.225" height="83.987" viewBox="0 0 458.225 83.987"><path fill="#FFE500" d="M0,0 L0,83.399 L67.953,83.399 L67.953,0 L0,0 Z M41.087,50.903 L19.099,72.896 L10.449,64.251 L32.331,42.365 L10.449,20.482 L19.099,11.835 L41.087,33.823 L32.546,42.365 L41.087,50.903 Z"/><g fill="none"><path fill="#010101" d="M125.66 24.827C133.032 24.827 137.726 29.015 139.905 34.462 142.252 40.244 141.499 46.948 135.631 51.137 142.336 53.988 144.766 60.188 144.766 65.718 144.766 74.517 138.985 83.399 127.754 83.399L101.275 83.399 101.275 24.827 125.66 24.827ZM109.656 48.122 125.493 48.122C134.709 48.122 134.878 32.871 125.66 32.871L109.656 32.871 109.656 48.122ZM109.656 75.188 127.754 75.188C133.454 75.188 136.303 70.41 136.303 65.802 136.303 61.194 133.454 56.5 127.754 56.5L109.656 56.5 109.656 75.188 109.656 75.188ZM159.81 53.652 169.697 53.652C176.821 53.652 180.34 48.542 180.34 43.429 180.34 38.401 176.82 33.289 169.697 33.289L156.71 33.289 156.71 83.398 148.331 83.398 148.331 24.744 169.698 24.744C182.436 24.744 188.805 34.127 188.805 43.43 188.805 51.725 183.692 59.602 173.637 61.362L192.155 83.4 181.179 83.4 159.81 57.676 159.81 53.652ZM231.581 66.137 210.55 66.137C208.286 71.5 205.355 78.54 203.51 83.4L194.376 83.4 217.921 23.99 224.123 23.99 247.669 83.4 238.618 83.4 231.581 66.137ZM213.733 58.177 228.312 58.177 221.107 37.481 213.733 58.177Z" /><polygon fill="#010101" points="264.082 83.399 264.082 24.66 270.619 24.744 299.191 66.055 299.191 24.744 307.57 24.744 307.57 83.4 300.869 83.4 272.544 42.424 272.544 83.4 264.082 83.4"/><path fill="#010101" d="M344.087 39.909C342.912 34.632 337.216 32.368 332.101 32.452 328.167 32.535 323.809 33.877 321.458 36.893 320.29 38.401 319.872 40.329 320.037 42.34 320.455 48.373 327.079 49.127 333.36 49.714 341.404 50.72 351.377 52.815 353.639 62.199 353.89 63.456 354.057 64.881 354.057 66.054 354.057 77.367 342.829 83.902 332.272 83.902 323.222 83.902 312.244 78.54 311.156 68.065L311.072 66.473 319.616 66.305 319.703 67.562 319.703 67.227C320.29 72.674 326.91 75.523 332.352 75.523 338.64 75.523 345.508 72.003 345.508 65.97 345.508 65.383 345.428 64.712 345.259 63.958 344.256 59.517 338.221 58.764 332.352 58.176 323.222 57.254 312.494 55.242 311.575 43.009L311.575 43.094C311.239 39.155 312.244 35.216 314.757 31.948 318.695 26.837 325.733 24.155 332.522 24.155 341.574 24.155 350.959 28.848 352.467 39.573L344.087 39.909ZM357.596 65.803 357.596 24.827 366.145 24.827 366.145 65.887C366.145 72.339 373.1 75.524 379.301 75.524 385.415 75.524 392.371 72.255 392.371 65.803L392.371 24.827 400.92 24.827 400.92 65.887C400.92 77.785 389.356 83.987 379.301 83.987 368.995 83.986 357.596 77.785 357.596 65.803Z"/><polygon fill="#010101" points="414.402 83.399 405.935 83.399 405.935 24.744 412.806 24.744 432.164 53.235 451.519 24.744 458.225 24.744 458.225 83.4 449.843 83.4 449.843 42.088 434.51 64.88 429.731 64.88 414.401 42.088 414.401 83.399"/><polygon fill="#010101" points="259.078 24.827 250.567 24.827 250.567 83.399 259.078 83.399"/></g></svg>
